<?xml version="1.0" encoding="utf-8"?>
<!-- Generator: Adobe Illustrator 16.0.4, SVG Export Plug-In . SVG Version: 6.00 Build 0)  -->
<!DOCTYPE svg PUBLIC "-//W3C//DTD SVG 1.1//EN" "http://www.w3.org/Graphics/SVG/1.1/DTD/svg11.dtd">
<svg version="1.1" id="Layer_1" xmlns="http://www.w3.org/2000/svg" xmlns:xlink="http://www.w3.org/1999/xlink" x="0px" y="0px"
	 width="578.391px" height="117.958px" viewBox="0 0 578.391 117.958" enable-background="new 0 0 578.391 117.958"
	 xml:space="preserve">
<g>
	<g>
		<path fill="#5B5B5B" d="M138.632,72.049c2.776,2.58,6.647,3.871,11.616,3.871s9.132-0.838,12.49-2.518
			c1.159-0.582,2.16-0.871,2.999-0.871c0.838,0,1.646,0.354,2.421,1.064c0.772,0.709,1.162,1.516,1.162,2.42
			c0,1.68-0.696,2.891-2.082,3.629c-1.39,0.744-2.632,1.373-3.728,1.887c-1.098,0.52-2.291,0.971-3.582,1.357
			c-2.902,0.836-6.261,1.26-10.067,1.26c-7.938,0-14.101-2.227-18.489-6.682c-4.39-4.453-6.583-10.773-6.583-18.973
			c0-7.098,1.841-13.003,5.519-17.714c4.129-5.292,10.003-7.938,17.618-7.938c7.228,0,12.938,2.454,17.135,7.358
			c3.936,4.583,5.904,10.26,5.904,17.036c0,1.227-0.404,2.26-1.209,3.098c-0.809,0.84-1.89,1.258-3.244,1.258h-32.815
			C134.213,65.981,135.856,69.469,138.632,72.049z M147.926,40.296c-5.744,0-9.938,2.552-12.585,7.65
			c-0.966,1.806-1.516,3.966-1.645,6.484h28.557c-0.26-4.582-1.935-8.195-5.033-10.842C154.637,41.394,151.54,40.296,147.926,40.296
			z"/>
		<path fill="#5B5B5B" d="M207.555,40.974c-5.681,0-10.972,3.099-15.876,9.294v29.041c0,1.227-0.436,2.258-1.307,3.098
			c-0.871,0.838-1.92,1.258-3.147,1.258c-1.227,0-2.257-0.42-3.098-1.258c-0.838-0.84-1.258-1.871-1.258-3.098V37.781
			c0-1.292,0.42-2.355,1.258-3.196c0.841-0.838,1.871-1.258,3.098-1.258c1.228,0,2.276,0.42,3.147,1.258
			c0.871,0.84,1.307,1.904,1.307,3.196v3.969c2.579-2.711,4.806-4.613,6.68-5.711c3.678-2.132,7.178-3.196,10.503-3.196
			c3.321,0,6.049,0.502,8.178,1.5c2.132,1.003,3.936,2.374,5.423,4.117c3.03,3.548,4.549,8.002,4.549,13.357v27.493
			c0,1.227-0.436,2.258-1.307,3.098c-0.871,0.838-1.92,1.258-3.147,1.258c-1.227,0-2.257-0.42-3.098-1.258
			c-0.838-0.84-1.258-1.871-1.258-3.098V52.783c0-3.677-0.822-6.564-2.469-8.662C214.088,42.026,211.361,40.974,207.555,40.974z"/>
		<path fill="#5B5B5B" d="M278.799,76.792c-4.778,4.904-10.294,7.357-16.555,7.357c-6.195,0-11.551-2.193-16.068-6.582
			c-4.905-4.842-7.356-11.197-7.356-19.072c0-7.742,2.451-14.067,7.356-18.972c4.453-4.454,9.809-6.68,16.068-6.68
			c6.261,0,11.776,2.454,16.555,7.358V16.484c0-1.292,0.417-2.355,1.258-3.196c0.838-0.838,1.887-1.258,3.146-1.258
			c1.258,0,2.307,0.42,3.145,1.258c0.838,0.84,1.26,1.904,1.26,3.196v62.825c0,1.227-0.422,2.258-1.26,3.098
			c-0.838,0.838-1.887,1.258-3.145,1.258c-1.26,0-2.309-0.42-3.146-1.258c-0.841-0.84-1.258-1.871-1.258-3.098V76.792z
			 M278.799,48.332c-4.389-4.84-9.487-7.26-15.297-7.26c-7.355,0-12.229,3.291-14.615,9.873c-0.84,2.193-1.258,4.711-1.258,7.549
			c0,5.551,1.516,9.906,4.549,13.068c2.773,2.904,6.549,4.357,11.324,4.357c5.81,0,10.908-2.422,15.297-7.262V48.332z"/>
		<path fill="#5B5B5B" d="M311.71,40.201c4.775-4.905,10.296-7.358,16.554-7.358c6.259,0,11.618,2.227,16.067,6.68
			c4.907,4.904,7.36,11.229,7.36,18.972c0,7.875-2.453,14.23-7.36,19.072c-4.516,4.389-9.887,6.582-16.114,6.582
			c-6.23,0-11.731-2.453-16.507-7.357v24.686c0,1.287-0.417,2.352-1.257,3.193c-0.841,0.836-1.887,1.256-3.146,1.256
			c-1.258,0-2.309-0.42-3.149-1.256c-0.835-0.842-1.258-1.906-1.258-3.193V37.683c0-1.224,0.423-2.257,1.258-3.098
			c0.841-0.838,1.892-1.258,3.149-1.258c1.259,0,2.305,0.42,3.146,1.258c0.84,0.84,1.257,1.874,1.257,3.098V40.201z M311.71,68.659
			c4.39,4.84,9.486,7.262,15.297,7.262c7.354,0,12.257-3.293,14.711-9.875c0.777-2.193,1.165-4.709,1.165-7.551
			c0-5.549-1.486-9.905-4.454-13.067c-2.841-2.905-6.649-4.355-11.422-4.355c-5.811,0-10.907,2.42-15.297,7.26V68.659z"/>
		<path fill="#5B5B5B" d="M385.763,32.843c7.484,0,13.49,2.358,18.006,7.067c4.515,4.776,6.777,10.972,6.777,18.585
			c0,7.615-2.263,13.811-6.777,18.588c-4.516,4.711-10.521,7.066-18.006,7.066c-7.551,0-13.552-2.355-18.004-7.066
			c-4.517-4.713-6.774-10.906-6.774-18.588c0-7.678,2.258-13.874,6.774-18.585C372.211,35.201,378.212,32.843,385.763,32.843z
			 M374.969,72.094c1.517,1.391,3.229,2.408,5.135,3.051c1.902,0.646,3.772,0.967,5.614,0.967c1.839,0,3.711-0.32,5.612-0.967
			c1.902-0.643,3.629-1.646,5.182-3.002c3.484-3.16,5.227-7.741,5.227-13.744c0-5.809-1.742-10.325-5.227-13.551
			c-2.909-2.646-6.486-3.969-10.749-3.969c-6.969,0-11.81,3.131-14.52,9.389c-0.969,2.26-1.449,4.984-1.449,8.18
			c0,3.193,0.48,5.92,1.449,8.178C372.211,68.885,373.454,70.708,374.969,72.094z"/>
		<path fill="#5B5B5B" d="M432.902,18.806c0,1.356-0.484,2.519-1.448,3.485c-0.97,0.968-2.13,1.454-3.484,1.454h-0.582
			c-1.356,0-2.517-0.485-3.484-1.454c-0.971-0.967-1.455-2.129-1.455-3.485V18.42c0-1.356,0.484-2.516,1.455-3.484
			c0.968-0.969,2.128-1.451,3.484-1.451h0.582c1.354,0,2.515,0.482,3.484,1.451c0.964,0.968,1.448,2.128,1.448,3.484V18.806z
			 M424.485,34.585c0.834-0.838,1.887-1.258,3.144-1.258c1.258,0,2.304,0.42,3.144,1.258c0.841,0.84,1.259,1.904,1.259,3.196v41.528
			c0,1.227-0.418,2.258-1.259,3.098c-0.84,0.838-1.886,1.258-3.144,1.258c-1.257,0-2.31-0.42-3.144-1.258
			c-0.84-0.84-1.264-1.871-1.264-3.098V37.781C423.222,36.489,423.646,35.425,424.485,34.585z"/>
		<path fill="#5B5B5B" d="M472.397,40.974c-5.681,0-10.969,3.099-15.876,9.294v29.041c0,1.227-0.434,2.258-1.305,3.098
			c-0.871,0.838-1.924,1.258-3.15,1.258c-1.226,0-2.258-0.42-3.098-1.258c-0.834-0.84-1.258-1.871-1.258-3.098V37.781
			c0-1.292,0.424-2.355,1.258-3.196c0.84-0.838,1.872-1.258,3.098-1.258c1.227,0,2.279,0.42,3.15,1.258
			c0.871,0.84,1.305,1.904,1.305,3.196v3.969c2.582-2.711,4.808-4.613,6.68-5.711c3.68-2.132,7.18-3.196,10.505-3.196
			c3.319,0,6.046,0.502,8.175,1.5c2.135,1.003,3.938,2.374,5.423,4.117c3.031,3.548,4.552,8.002,4.552,13.357v27.493
			c0,1.227-0.438,2.258-1.31,3.098c-0.871,0.838-1.917,1.258-3.144,1.258c-1.229,0-2.258-0.42-3.099-1.258
			c-0.84-0.84-1.257-1.871-1.257-3.098V52.783c0-3.677-0.826-6.564-2.471-8.662C478.933,42.026,476.206,40.974,472.397,40.974z"/>
		<path fill="#5B5B5B" d="M524.329,76.405c1.711,0,2.938-0.145,3.681-0.436c0.743-0.293,1.546-0.436,2.417-0.436
			s1.659,0.32,2.372,0.965c0.71,0.648,1.066,1.617,1.066,2.906c0,1.291-0.646,2.227-1.938,2.807
			c-2.774,1.291-5.145,1.938-7.113,1.938c-1.97,0-3.759-0.098-5.371-0.291c-1.614-0.193-3.165-0.742-4.651-1.646
			c-3.546-2.064-5.318-5.678-5.318-10.842V41.363h-6.877c-1.226,0-1.839-0.613-1.839-1.84c0-0.58,0.293-1.129,0.871-1.646
			l13.163-12.875c0.584-0.58,1.13-0.871,1.65-0.871c0.516,0,0.948,0.194,1.304,0.58c0.357,0.389,0.532,0.84,0.532,1.356v7.745
			h10.943c1.092,0,1.993,0.355,2.706,1.064c0.71,0.711,1.066,1.613,1.066,2.712c0,1.097-0.356,2-1.066,2.708
			c-0.713,0.711-1.614,1.067-2.706,1.067h-10.943v29.231c0,2.455,0.741,4.131,2.226,5.033
			C521.345,76.147,522.617,76.405,524.329,76.405z"/>
		<path fill="#5B5B5B" d="M559.128,76.016c7.165,0,10.748-2.291,10.748-6.873c0-1.42-0.712-2.5-2.135-3.242
			c-1.418-0.742-3.205-1.404-5.371-1.984c-2.159-0.582-4.5-1.178-7.016-1.791c-2.521-0.613-4.855-1.466-7.021-2.564
			c-2.159-1.098-3.953-2.533-5.371-4.31c-1.423-1.773-2.129-3.951-2.129-6.533c0-2.58,0.387-4.806,1.16-6.681
			c0.773-1.871,1.938-3.484,3.484-4.84c3.423-2.902,8.164-4.355,14.231-4.355c4.841,0,9.516,0.809,14.036,2.419
			c0.902,0.325,1.598,0.84,2.083,1.549c0.479,0.711,0.722,1.5,0.722,2.372s-0.371,1.696-1.114,2.469
			c-0.741,0.775-1.463,1.163-2.175,1.163c-0.711,0-1.582-0.16-2.613-0.484c-3.097-0.967-6.484-1.451-10.165-1.451
			s-6.469,0.644-8.372,1.936c-1.905,1.291-2.854,2.84-2.854,4.646c0,1.807,0.722,3.145,2.175,4.016
			c1.454,0.871,3.243,1.598,5.371,2.18c2.135,0.58,4.47,1.16,7.021,1.742c2.547,0.58,4.887,1.387,7.017,2.42
			c5.035,2.58,7.551,6.583,7.551,12.001c0,4.133-1.546,7.488-4.645,10.068c-3.355,2.84-8.036,4.26-14.036,4.26
			c-6.52,0-12.392-1.453-17.618-4.359c-1.099-0.771-1.644-1.742-1.644-2.902c0-1.162,0.351-2.146,1.062-2.953
			c0.712-0.807,1.483-1.209,2.324-1.209c0.84,0,1.841,0.258,3.001,0.773C550.577,75.18,554.675,76.016,559.128,76.016z"/>
	</g>
	<path fill="#4ABC85" d="M93.037,81.325c-8.266,0-15.263,5.508-17.533,13.041H55.221c-2.271-7.533-9.268-13.041-17.534-13.041
		c-0.884,0-1.744,0.084-2.595,0.205l-4.131-8.895c2.492-2.221,4.381-5.102,5.368-8.378h20.283
		c2.271,7.534,9.268,13.038,17.533,13.038c10.101,0,18.316-8.217,18.316-18.316c0-10.101-8.216-18.316-18.316-18.316
		c-8.266,0-15.263,5.504-17.533,13.038H36.329c-0.987-3.276-2.876-6.155-5.368-8.376l4.134-8.897
		c0.848,0.121,1.711,0.206,2.592,0.206c8.267,0,15.261-5.505,17.534-13.039h20.283c2.273,7.534,9.268,13.039,17.533,13.039
		c10.101,0,18.316-8.219,18.316-18.32C111.354,8.217,103.138,0,93.037,0c-8.266,0-15.263,5.505-17.533,13.039H55.221
		C52.95,5.505,45.953,0,37.687,0C27.587,0,19.37,8.217,19.37,18.314c0,5.431,2.39,10.301,6.152,13.66l-4.132,8.895
		c-0.85-0.122-1.711-0.206-2.596-0.206c-10.1,0-18.316,8.216-18.316,18.316c0,10.1,8.217,18.316,18.316,18.316
		c0.885,0,1.746-0.084,2.596-0.207l4.132,8.895c-3.763,3.359-6.152,8.23-6.152,13.66c0,10.1,8.217,18.314,18.316,18.314
		c8.267,0,15.261-5.506,17.534-13.035h20.283c2.273,7.529,9.268,13.035,17.533,13.035c10.101,0,18.316-8.215,18.316-18.314
		S103.138,81.325,93.037,81.325z M74.146,51.219c4.278,0,7.761,3.482,7.761,7.76s-3.482,7.76-7.761,7.76s-7.76-3.481-7.76-7.76
		S69.867,51.219,74.146,51.219z M93.037,10.557c4.278,0,7.761,3.479,7.761,7.757c0,4.281-3.482,7.763-7.761,7.763
		s-7.76-3.482-7.76-7.763C85.277,14.036,88.759,10.557,93.037,10.557z M37.687,10.557c4.279,0,7.761,3.479,7.761,7.757
		c0,4.281-3.481,7.763-7.761,7.763c-4.277,0-7.759-3.482-7.759-7.763C29.928,14.036,33.409,10.557,37.687,10.557z M11.036,58.979
		c0-4.278,3.481-7.76,7.759-7.76c4.279,0,7.761,3.482,7.761,7.76s-3.481,7.76-7.761,7.76C14.518,66.739,11.036,63.257,11.036,58.979
		z M37.687,107.401c-4.277,0-7.759-3.479-7.759-7.758s3.481-7.762,7.759-7.762c4.279,0,7.761,3.482,7.761,7.762
		S41.966,107.401,37.687,107.401z M93.037,107.401c-4.278,0-7.76-3.479-7.76-7.758s3.481-7.762,7.76-7.762s7.761,3.482,7.761,7.762
		S97.315,107.401,93.037,107.401z"/>
</g>
</svg>
