<?xml version="1.0" encoding="utf-8"?>
<!-- Generator: Adobe Illustrator 16.0.4, SVG Export Plug-In . SVG Version: 6.00 Build 0)  -->
<!DOCTYPE svg PUBLIC "-//W3C//DTD SVG 1.1//EN" "http://www.w3.org/Graphics/SVG/1.1/DTD/svg11.dtd">
<svg version="1.1" id="Layer_1" xmlns="http://www.w3.org/2000/svg" xmlns:xlink="http://www.w3.org/1999/xlink" x="0px" y="0px"
	 width="111.354px" height="117.958px" viewBox="0 0 111.354 117.958" enable-background="new 0 0 111.354 117.958"
	 xml:space="preserve">
<g>
	<path fill="#4ABC85" d="M93.037,81.325c-8.266,0-15.263,5.508-17.533,13.041H55.221c-2.271-7.533-9.268-13.041-17.534-13.041
		c-0.884,0-1.744,0.084-2.595,0.205l-4.131-8.895c2.492-2.221,4.381-5.102,5.368-8.378h20.283
		c2.271,7.534,9.268,13.038,17.533,13.038c10.101,0,18.316-8.217,18.316-18.316c0-10.101-8.216-18.316-18.316-18.316
		c-8.266,0-15.263,5.504-17.533,13.038H36.329c-0.987-3.276-2.876-6.155-5.368-8.376l4.134-8.897
		c0.848,0.121,1.711,0.206,2.592,0.206c8.267,0,15.261-5.505,17.534-13.039h20.283c2.273,7.534,9.268,13.039,17.533,13.039
		c10.101,0,18.316-8.219,18.316-18.32C111.354,8.217,103.138,0,93.037,0c-8.266,0-15.263,5.505-17.533,13.039H55.221
		C52.95,5.505,45.953,0,37.687,0C27.587,0,19.37,8.217,19.37,18.314c0,5.431,2.39,10.301,6.152,13.66l-4.132,8.895
		c-0.85-0.122-1.711-0.206-2.596-0.206c-10.1,0-18.316,8.216-18.316,18.316c0,10.1,8.217,18.316,18.316,18.316
		c0.885,0,1.746-0.084,2.596-0.207l4.132,8.895c-3.763,3.359-6.152,8.23-6.152,13.66c0,10.1,8.217,18.314,18.316,18.314
		c8.267,0,15.261-5.506,17.534-13.035h20.283c2.273,7.529,9.268,13.035,17.533,13.035c10.101,0,18.316-8.215,18.316-18.314
		S103.138,81.325,93.037,81.325z M74.146,51.219c4.278,0,7.761,3.482,7.761,7.76s-3.482,7.76-7.761,7.76s-7.76-3.481-7.76-7.76
		S69.867,51.219,74.146,51.219z M93.037,10.557c4.278,0,7.761,3.479,7.761,7.757c0,4.281-3.482,7.763-7.761,7.763
		s-7.76-3.482-7.76-7.763C85.277,14.036,88.759,10.557,93.037,10.557z M37.687,10.557c4.279,0,7.761,3.479,7.761,7.757
		c0,4.281-3.481,7.763-7.761,7.763c-4.277,0-7.759-3.482-7.759-7.763C29.928,14.036,33.409,10.557,37.687,10.557z M11.036,58.979
		c0-4.278,3.481-7.76,7.759-7.76c4.279,0,7.761,3.482,7.761,7.76s-3.481,7.76-7.761,7.76C14.518,66.739,11.036,63.257,11.036,58.979
		z M37.687,107.401c-4.277,0-7.759-3.479-7.759-7.758s3.481-7.762,7.759-7.762c4.279,0,7.761,3.482,7.761,7.762
		S41.966,107.401,37.687,107.401z M93.037,107.401c-4.278,0-7.76-3.479-7.76-7.758s3.481-7.762,7.76-7.762s7.761,3.482,7.761,7.762
		S97.315,107.401,93.037,107.401z"/>
</g>
</svg>
